# xmcd
#
# Track frame offsets:
#	182
#	15952
#	29192
#	42400
#	57702
#	70925
#	87590
#	106665
#	117750
#	131540
#	147217
#	157185
#	169712
#	182672
#	199630
#	215295
#	230030
#	244775
#	258577
#	273292
#
# Disc length: 3860 seconds
#
# Revision: 1
# Processed by: cddbd v1.5.1PL0 Copyright (c) Steve Scherf et al.
# Submitted via: audiograbber 1.83.01
#
DISCID=250f1214
DTITLE=Juul Kabas - Beste
DYEAR=1900
DGENRE=Misc
TTITLE0=Juul Kabas
TTITLE1=Van Retie Zen Ik
TTITLE2=Alpenhoorn Square
TTITLE3=Ne Koersvelo Voor Mij
TTITLE4=Ik Zou Zo Geren
TTITLE5=Dansen Gelijk Pinokio
TTITLE6=Ta-Ta-Tarzan
TTITLE7=In Den Tijd Toen Ik Vree Met Angelique
TTITLE8=De Molens Van Vroeger
TTITLE9=M'n Tennislady
TTITLE10='t Zijn Zotten Die Werken
TTITLE11='k Heb Genen Tijd
TTITLE12=Sinds Mijn Lief Mij Ontviel
TTITLE13=Ik Ben Zo Verliefd
TTITLE14=Babbelabediboe
TTITLE15=Kakakuliki
TTITLE16=Jamboeree
TTITLE17=Ik Zou Is Willen Vliegen Als Ne Koekoek
TTITLE18=Het Lotje Van De Lotto
TTITLE19=Den Doedelzak
EXTD=
EXTT0=
EXTT1=
EXTT2=
EXTT3=
EXTT4=
EXTT5=
EXTT6=
EXTT7=
EXTT8=
EXTT9=
EXTT10=
EXTT11=
EXTT12=
EXTT13=
EXTT14=
EXTT15=
EXTT16=
EXTT17=
EXTT18=
EXTT19=
PLAYORDER=
